inDegrees=no
num_controls=7
num_derivatives=13
num_iterations=120
num_multipliers=7
num_parameters=0
num_slacks=7
num_states=26
objective=5.650524
objective_accelerations=0.875586
objective_balance=0.024631
objective_effort=0.198253
objective_height=4.433411
objective_ligament=0.118643
solver_duration=1317.160634
status=Solve_Succeeded
success=true
DataType=double
version=3
OpenSimVersion=4.4-2022-07-23-0e9fedc
endheader
time	/jointset/ground_pelvis/pelvis_tilt/value	/jointset/ground_pelvis/pelvis_tx/value	/jointset/ground_pelvis/pelvis_ty/value	/jointset/hip_l/hip_flexion_l/value	/jointset/hip_l/hip_adduction_l/value	/jointset/hip_l/hip_rotation_l/value	/jointset/back/lumbar_extension/value	/jointset/patellofemoral_l/patellar_flexion_l/value	/jointset/knee_l/knee_flexion_l/value	/jointset/knee_l/knee_adduction_l/value	/jointset/knee_l/knee_rotation_l/value	/jointset/ankle_l/ankle_angle_l/value	/jointset/subtalar_l/subtalar_angle_l/value	/jointset/ground_pelvis/pelvis_tilt/speed	/jointset/ground_pelvis/pelvis_tx/speed	/jointset/ground_pelvis/pelvis_ty/speed	/jointset/hip_l/hip_flexion_l/speed	/jointset/hip_l/hip_adduction_l/speed	/jointset/hip_l/hip_rotation_l/speed	/jointset/back/lumbar_extension/speed	/jointset/patellofemoral_l/patellar_flexion_l/speed	/jointset/knee_l/knee_flexion_l/speed	/jointset/knee_l/knee_adduction_l/speed	/jointset/knee_l/knee_rotation_l/speed	/jointset/ankle_l/ankle_angle_l/speed	/jointset/subtalar_l/subtalar_angle_l/speed	/forceset/tau_hip_flexion_l	/forceset/tau_hip_adduction_l	/forceset/tau_hip_rotation_l	/forceset/tau_knee_flexion_l	/forceset/tau_ankle_angle_l	/forceset/tau_subtalar_angle_l	/forceset/tau_lumbar_extension	lambda_cid13_p0	lambda_cid13_p1	lambda_cid13_p2	lambda_cid13_p3	lambda_cid13_p4	lambda_cid13_p5	lambda_cid14_p0	/jointset/ground_pelvis/pelvis_tilt/accel	/jointset/ground_pelvis/pelvis_tx/accel	/jointset/ground_pelvis/pelvis_ty/accel	/jointset/hip_l/hip_flexion_l/accel	/jointset/hip_l/hip_adduction_l/accel	/jointset/hip_l/hip_rotation_l/accel	/jointset/back/lumbar_extension/accel	/jointset/patellofemoral_l/patellar_flexion_l/accel	/jointset/knee_l/knee_flexion_l/accel	/jointset/knee_l/knee_adduction_l/accel	/jointset/knee_l/knee_rotation_l/accel	/jointset/ankle_l/ankle_angle_l/accel	/jointset/subtalar_l/subtalar_angle_l/accel	gamma_cid13_p0	gamma_cid13_p1	gamma_cid13_p2	gamma_cid13_p3	gamma_cid13_p4	gamma_cid13_p5	gamma_cid14_p0
1.5	-0.3852252719861993	0.03792901201662695	0.7717172447117342	1.11678506414958	-0.3496344499874894	-0.04761815051327377	-0.3387746482217291	0.8873988908351084	0.8873988908352131	5.466776791285593e-05	-0.1731974360203753	0.2822055360187102	0.1692328991903831	0.6020690574016251	0.280718322903897	0.5869427772942555	-2.600635991013744	0.01374586339194016	-0.6461750030765134	0.6079323808170269	-2.380881954135484	-2.380881954135495	-0.2938689144587345	0.02428631593211966	-0.5588951624433037	-0.2118261327768075	-0.1457136182072448	0.02955889699153525	-0.006195035663767138	-0.1343923937448308	-0.03182274292527867	0.02606714157430795	0.1346737438438843	-32.0405224304703	-7.306528131488267	2.706445597994936	-6.00480298182478	-426.657670815353	-65.4873199493365	-7.246276329100684	0.7283875641973512	0.7473258598334142	-0.8351725759925069	-1.498335275446143	0.4072982655574839	-0.5087427978739224	1.786841398160647	-1.347385025312821	-1.347385025312833	-0.09917681676496132	0.2742383826069131	-0.6186632542444462	0.5122071730407072	6.88692081789944e-07	7.196082475951313e-07	-7.020134817371656e-06	-2.376616596768964e-07	1.285114829195544e-06	1.29459234610033e-06	9.549616105075595e-07
1.51	-0.3791683199727779	0.04077308218897469	0.7775437156061853	1.090705755372193	-0.349479510773466	-0.05409688185302192	-0.3326079954343587	0.8635250919432264	0.8635250919432347	-0.002900060667980099	-0.1729394445308159	0.2765853179460647	0.1671360277203228	0.6092162066061576	0.2880393424179715	0.5782167962841055	-2.614851683709065	0.01724192115014947	-0.6495203643680382	0.6252938478684978	-2.393546976292939	-2.393546976292938	-0.2970499481813854	0.02733060539248951	-0.565066715303999	-0.207523222800339	-0.1407142405245603	0.02918429900406699	-0.00575791045385507	-0.1303452389527308	-0.03238083701024024	0.02538305428868812	0.1305264740491072	-32.05955985597902	-7.208805587401072	2.922406465549633	-5.464219614104104	-422.6585650489013	-64.93442112544756	-8.213146240425571	0.6922078074627293	0.715935562158644	-0.9111873968298466	-1.326939725237216	0.322126859773132	-0.2387296539179608	1.695150040484181	-1.17664908629493	-1.176649086293241	-0.423832311185856	0.3206228359691435	-0.6041008176024263	0.3942356787592545	8.194107528690765e-07	-1.504718968912102e-07	-8.330407479243059e-06	-4.077119522220864e-07	1.474008496328809e-06	1.262260361638019e-06	1.035730725772397e-06
1.52	-0.3730430306255324	0.04368865166945605	0.7832789513838738	1.064495538976118	-0.3492893375160998	-0.06060732617751022	-0.3262708578401052	0.839534525174686	0.8395345251746357	-0.005885852573294335	-0.172650790425017	0.2709058444416878	0.1650831659037886	0.6157365241659442	0.295018184530623	0.5686957539417858	-2.626817514750871	0.02079267206118253	-0.6525176000246141	0.6420293421937161	-2.404235529463719	-2.404235529463706	-0.3000816083508726	0.03041883918154514	-0.5707462487895095	-0.2030242020714977	-0.1357148628419243	0.02880970101658321	-0.005320785243642554	-0.1262980841606242	-0.0329389310952019	0.02469896700304369	0.1263792042542835	-32.07047118292428	-7.119130070511246	3.1472225317783	-4.992272468418355	-418.5500548706978	-64.51144297696221	-9.21658711913371	0.6030212352482472	0.678890379548774	-0.9941848424264362	-1.048362944743171	0.418236896122209	-0.4391176708841962	1.661646852910136	-0.9520912279779061	-0.9520912279779056	-0.06930210613222729	0.2830272483440572	-0.5202593792075376	0.551429323515267	8.821513343767434e-07	-5.488482257330523e-07	-8.912729776702778e-06	-4.830763975367444e-07	1.586631152272069e-06	1.375497007912487e-06	1.063378392030571e-06
1.53	-0.3668557150930938	0.04667233579812792	0.7889151195196822	1.038176758668494	-0.3490633865319384	-0.06714624734889221	-0.3197697070716974	0.8154469928490438	0.8154469928489697	-0.008900785495847625	-0.1723307367308593	0.2651722782954511	0.1630764078703004	0.6216053312396967	0.3016643561429287	0.5584137084409906	-2.636554529811891	0.02439358364914581	-0.6551864107949588	0.6580863205420064	-2.41292355050678	-2.412923550506981	-0.3028924616520958	0.03362754271915525	-0.5758615160603971	-0.1983013723161428	-0.1304710178522564	0.02801048009490008	-0.004697494268621317	-0.1231516586706639	-0.03253902827111267	0.02376945146532172	0.122081671616234	-31.81790388627451	-6.913454676840573	3.290095020771243	-4.717722638797363	-414.8178002258952	-64.04930444298154	-10.2191312964241	0.5607197051370841	0.6492489277282371	-1.063512095767694	-0.878636270114946	0.3317399739248558	-0.1676839565500348	1.56054968404938	-0.7752536020312116	-0.7752536020634048	-0.3854100078895396	0.3435348415002993	-0.491298654108382	0.437697716624767	8.726651957147287e-07	-4.460392504526196e-07	-8.721604811975091e-06	-4.57837130168963e-07	1.61821585882595e-06	1.64340032434478e-06	1.034584518719167e-06
1.54	-0.3606133296375751	0.04972083531805429	0.7944448076621099	1.01177215511359	-0.3488012820951422	-0.07370924086326855	-0.3131114212481549	0.7912829611010159	0.7912829611010097	-0.01194351356444883	-0.1719778474143575	0.2593907318258891	0.1611178757173812	0.6267505087813787	0.3079812627815226	0.5473997552657078	-2.643982164206252	0.0280233625887768	-0.6573320686229283	0.6734563532207251	-2.419535413932281	-2.419535413932697	-0.3056406375842175	0.03698596365800198	-0.5803423134544463	-0.1933790259576228	-0.1252271728626387	0.02721125917318217	-0.004074203292881324	-0.120005233180695	-0.03213912544703273	0.02283993592753974	0.1177841389781406	-31.55808428602658	-6.711065199414594	3.435800171201682	-4.502835383365374	-410.9834972607679	-63.70727366047952	-11.21743111248432	0.4582953288342421	0.6130373848063401	-1.140566377323921	-0.5864868114116678	0.4240103664557019	-0.3344870824091891	1.524257718995826	-0.5368597044660148	-0.5368597044660095	-0.05676663231187141	0.3129707285913754	-0.3933654038399526	0.5913326441482882	8.536207849574051e-07	-1.669794486307154e-07	-8.47349314339659e-06	-4.056744327222144e-07	1.648130836258825e-06	1.965854444680253e-06	1.014309044745281e-06
